<svg width="20" height="20" viewBox="0 0 20 20" fill="none" xmlns="http://www.w3.org/2000/svg">
<path d="M17.3477 2.65234V13.6523H6.34766V2.65234H17.3477ZM17.3477 0.847656H6.34766C5.31641 0.847656 4.5 1.66406 4.5 2.65234V13.6523C4.5 14.6836 5.31641 15.5 6.34766 15.5H17.3477C18.3359 15.5 19.1523 14.6836 19.1523 13.6523V2.65234C19.1523 1.66406 18.3359 0.847656 17.3477 0.847656ZM9.52734 9.69922L11.0742 11.7617L13.3516 8.92578L16.4023 12.75H7.25L9.52734 9.69922ZM0.847656 4.5V17.3477C0.847656 18.3359 1.66406 19.1523 2.65234 19.1523H15.5V17.3477H2.65234V4.5H0.847656Z" fill="white" fill-opacity="0.5"/>
</svg>
