<svg width="18" height="18" viewBox="0 0 18 18" fill="none" xmlns="http://www.w3.org/2000/svg">
<path d="M15.875 0.835938L0.835938 15.875C0.921875 16.1758 1.05078 16.4766 1.30859 16.6914C1.52344 16.9492 1.82422 17.0781 2.125 17.1641L17.207 2.125C16.9922 1.48047 16.5195 1.00781 15.875 0.835938ZM8.87109 0.75L0.75 8.87109V11.4922L11.4922 0.75H8.87109ZM2.59766 0.75C1.56641 0.75 0.75 1.56641 0.75 2.59766V4.40234L4.40234 0.75H2.59766ZM15.4023 17.25C15.918 17.25 16.3906 17.0352 16.6914 16.6914C17.0352 16.3906 17.25 15.918 17.25 15.4023V13.5977L13.5977 17.25H15.4023ZM6.50781 17.25H9.12891L17.25 9.12891V6.50781L6.50781 17.25Z" fill="#E0DFD3"/>
</svg>
