<svg width="327" height="206" viewBox="0 0 327 206" fill="none" xmlns="http://www.w3.org/2000/svg">
<path d="M84.6932 44.3676C87.0736 44.3676 89.0132 42.4281 89.1013 39.9596H106.734C106.646 52.214 96.8596 62 84.6932 62H26.8591C12.4888 62 0.939559 50.4508 0.939559 36.0804V26.2945C0.939559 11.9241 12.4888 0.37492 26.8591 0.28676H84.6932C96.8596 0.37492 106.646 10.1609 106.734 22.3272H89.1013C89.0132 19.9468 87.0736 18.0073 84.6932 17.9191H26.8591C22.2747 18.0073 18.5719 21.7101 18.5719 26.2945V36.0804C18.5719 40.6649 22.2747 44.3676 26.8591 44.3676H84.6932Z" fill="#F4C952"/>
<path d="M136.545 0.28676H216.419V36.0804C216.331 50.4508 204.782 62 190.412 62H110.625V26.2945C110.625 11.9241 122.174 0.37492 136.545 0.28676ZM198.787 36.0804V17.9191H136.545C131.96 18.0073 128.258 21.7101 128.258 26.2945V44.3676H190.412C194.996 44.3676 198.699 40.6649 198.787 36.0804ZM308.473 0.28676H326.105V62H302.301C295.425 62.0882 288.813 59.3551 283.964 54.4181L249.933 20.3876C248.346 18.8007 246.23 17.9191 244.026 17.9191H237.943V62H220.311V0.28676H244.026C250.903 0.28676 257.515 3.01978 262.364 7.95683L296.394 41.9873C297.981 43.5742 300.097 44.4558 302.301 44.3676H308.473V0.28676ZM80.726 94.3272C95.0963 94.4154 106.646 105.965 106.734 120.335V134H22.98C10.7255 134 0.939559 124.214 0.939559 111.96H18.5719C18.5719 114.428 20.5115 116.368 22.98 116.368H88.0434C86.6328 113.723 83.8116 112.048 80.726 111.96H26.8591C12.4888 111.96 0.939559 100.41 0.939559 86.04V72.2868H84.6932C96.8596 72.3749 106.646 82.1609 106.734 94.3272H89.1013C89.0132 91.9468 87.0736 90.0073 84.6932 89.9191H19.5417C20.9523 92.6521 23.7735 94.3272 26.8591 94.3272H80.726ZM216.419 89.9191H172.338V134H154.706V89.9191H110.625V72.2868H216.419V89.9191ZM326.105 96.5312C326.105 102.438 323.901 108.169 320.022 112.577C323.901 117.161 326.105 123.068 326.105 129.151V134H308.473V129.151C308.384 124.567 304.682 120.864 300.097 120.776H237.943V134H220.311V72.2868H301.86C315.173 72.3749 326.017 83.2188 326.105 96.5312ZM237.943 103.143H301.86C305.475 103.143 308.473 100.234 308.473 96.5312C308.473 92.9166 305.475 89.9191 301.86 89.9191H237.943V103.143ZM89.1013 144.287H106.734V179.816C106.646 194.274 94.92 206 80.4615 206H27.1236C12.6651 206 0.939559 194.274 0.939559 179.816V144.287H18.5719V179.816C18.5719 184.577 22.3629 188.368 27.1236 188.368H80.4615C85.2222 188.368 89.0132 184.577 89.1013 179.816V144.287ZM194.465 188.368C196.845 188.368 198.785 186.428 198.873 183.96H216.505C216.417 196.214 206.631 206 194.465 206H136.631C122.26 206 110.711 194.451 110.711 180.08V170.294C110.711 155.924 122.26 144.375 136.631 144.287H194.465C206.631 144.375 216.417 154.161 216.505 166.327H198.873C198.785 163.947 196.845 162.007 194.465 161.919H136.631C132.046 162.007 128.344 165.71 128.344 170.294V180.08C128.344 184.665 132.046 188.368 136.631 188.368H194.465ZM326.191 161.919H282.11V206H264.478V161.919H220.397V144.287H326.191V161.919Z" fill="#E0DFD3"/>
</svg>
