<svg width="327" height="134" viewBox="0 0 327 134" fill="none" xmlns="http://www.w3.org/2000/svg">
<path d="M82.93 17.9191C80.726 17.9191 78.6101 18.8007 77.0232 20.3876L66.2674 31.1434L77.0232 41.9873C78.6101 43.5742 80.726 44.4558 82.93 44.3676H106.734V62H82.93C76.0534 62.0882 69.4413 59.3551 64.5924 54.4181L53.8366 43.6624L42.9927 54.4181C38.1438 59.3551 31.5317 62.0882 24.6551 62H0.939559V44.3676H24.6551C26.8591 44.4558 28.975 43.5742 30.5619 41.9873L41.3176 31.1434L30.5619 20.3876C28.975 18.8007 26.8591 17.9191 24.6551 17.9191H0.939559V0.28676H24.6551C31.5317 0.28676 38.1438 3.01978 42.9927 7.95683L53.8366 18.7126L64.5924 7.95683C69.4413 3.01978 76.0534 0.28676 82.93 0.28676H106.734V17.9191H82.93Z" fill="#EE776F"/>
<path d="M216.419 17.9191H172.338V62H154.706V17.9191H110.625V0.28676H216.419V17.9191ZM326.105 24.5312C326.105 30.4381 323.901 36.1686 320.022 40.5767C323.901 45.1611 326.105 51.0679 326.105 57.1511V62H308.473V57.1511C308.384 52.5667 304.682 48.8639 300.097 48.7757H237.943V62H220.311V0.28676H301.86C315.173 0.37492 326.017 11.2188 326.105 24.5312ZM237.943 31.1434H301.86C305.475 31.1434 308.473 28.234 308.473 24.5312C308.473 20.9166 305.475 17.9191 301.86 17.9191H237.943V31.1434ZM80.726 72.2868C95.0963 72.3749 106.646 83.9241 106.734 98.2945V134H89.1013V125.184H18.5719V134H0.939559V98.2945C0.939559 83.9241 12.4888 72.3749 26.8591 72.2868H80.726ZM89.1013 107.551V98.2945C89.0132 93.7101 85.3104 90.0073 80.726 89.9191H26.8591C22.2747 90.0073 18.5719 93.7101 18.5719 98.2945V107.551H89.1013ZM194.379 116.368C196.759 116.368 198.699 114.428 198.787 111.96H216.419C216.331 124.214 206.545 134 194.379 134H136.545C122.174 134 110.625 122.451 110.625 108.08V98.2945C110.625 83.9241 122.174 72.3749 136.545 72.2868H194.379C206.545 72.3749 216.331 82.1609 216.419 94.3272H198.787C198.699 91.9468 196.759 90.0073 194.379 89.9191H136.545C131.96 90.0073 128.258 93.7101 128.258 98.2945V108.08C128.258 112.665 131.96 116.368 136.545 116.368H194.379ZM326.105 89.9191H282.024V134H264.392V89.9191H220.311V72.2868H326.105V89.9191Z" fill="#E0DFD3"/>
</svg>
