<svg width="532" height="296" viewBox="0 0 532 296" fill="none" xmlns="http://www.w3.org/2000/svg">
<path d="M-5.63451e-05 305.017L271.351 1.90669L271.403 1.8674L271.467 1.78998L271.498 1.75525L271.579 1.68242L271.611 1.63384C271.646 1.59915 271.696 1.5899 271.727 1.55636C271.758 1.52283 271.801 1.45457 271.848 1.41294L271.861 1.39795L271.874 1.38989L271.89 1.37485C271.945 1.32744 272.015 1.3008 272.071 1.25918C272.105 1.23143 272.12 1.18983 272.155 1.16439L272.195 1.14361L272.26 1.08577L272.33 1.04303L272.469 0.949327L272.498 0.920434L272.534 0.906534C272.587 0.871846 272.643 0.847551 272.698 0.814019L272.845 0.723877L272.891 0.683408C272.95 0.651033 273.016 0.647542 273.076 0.616323C273.136 0.585104 273.2 0.531875 273.268 0.500656L273.329 0.468347C273.374 0.448691 273.422 0.447487 273.467 0.427831C273.538 0.400081 273.608 0.382768 273.681 0.35733C273.734 0.337674 273.77 0.291411 273.824 0.274067L273.832 0.274067C273.908 0.249786 273.991 0.260246 274.064 0.239434C274.123 0.223246 274.179 0.175851 274.236 0.16082L274.31 0.152707L274.369 0.12723L274.389 0.12723C274.435 0.11798 274.483 0.127252 274.531 0.113377C274.578 0.0995017 274.6 0.0821048 274.637 0.0763235C274.695 0.0682298 274.753 0.0844174 274.811 0.0763236C274.868 0.0682298 274.897 0.0382374 274.947 0.0312999L274.985 0.0312999L274.992 0.0312999L275.047 0.0231871C275.111 0.0231871 275.172 0.0335826 275.237 0.0301138C275.302 0.0266451 275.368 0.0139059 275.436 0.0127496L275.541 3.4814e-05L275.554 3.48151e-05L275.685 0.0150744C275.74 0.0150744 275.791 0.0347281 275.848 0.0370406C275.904 0.0393531 275.976 0.0208693 276.043 0.0266505L276.089 0.0266505L276.128 0.0266506L276.147 0.0266506C276.195 0.0266506 276.233 0.063693 276.281 0.0706305C276.33 0.077568 276.397 0.0579117 276.448 0.0706305C276.499 0.0833493 276.522 0.100634 276.563 0.108727C276.605 0.116821 276.658 0.108736 276.706 0.123767L276.731 0.123767L276.778 0.145781L276.847 0.145781C276.914 0.161968 276.974 0.210526 277.042 0.230182C277.11 0.249839 277.184 0.238227 277.253 0.261353L277.264 0.261353L277.276 0.261353L277.317 0.285644L277.421 0.335412C277.494 0.360849 277.564 0.380482 277.635 0.4117C277.679 0.429044 277.726 0.430188 277.769 0.449845L277.775 0.449845L277.788 0.459096L277.853 0.498427C277.909 0.523864 277.956 0.571274 278.012 0.597868C278.069 0.624462 278.148 0.631356 278.21 0.666044L278.222 0.666044L278.279 0.715765L278.419 0.805954C278.468 0.834861 278.518 0.853396 278.566 0.884615L278.614 0.903071L278.66 0.950514L278.775 1.02913L278.855 1.07187L278.908 1.12046L278.962 1.14707C279.008 1.18176 279.027 1.23841 279.077 1.27541C279.127 1.31241 279.201 1.34015 279.255 1.39103L279.268 1.40953C279.315 1.45115 279.344 1.50895 279.391 1.55404C279.437 1.59913 279.471 1.59452 279.506 1.62805L279.533 1.66852L279.625 1.75178L279.652 1.78186L279.722 1.86859L279.766 1.9009L555 309.935L555 327.669L406.562 161.54L555 348.46L555 367.416L385.361 153.801L555 397.97L555 418.562L366.101 146.671L555 463.946L555 486.851L348.66 140.285L554.363 555L541.324 555L332.852 134.701L499.557 555L487.029 555L318.475 130.039L444.8 555L432.687 555L305.285 126.415L390.097 555L378.29 555L292.994 123.954L335.455 555L323.832 555L281.247 122.722L280.875 555L269.313 555L269.685 122.744L226.358 555L214.731 555L257.932 123.994L171.9 555L160.089 555L245.627 126.469L117.504 555L105.385 555L232.418 130.112L63.1624 555L50.6264 555L218.032 134.758L8.86603 555L-7.81993e-05 555L-7.74657e-05 546.609L202.211 140.342L-7.15547e-05 478.995L-6.95567e-05 456.14L184.737 146.754L-6.56977e-05 411.999L-6.39007e-05 391.443L165.452 153.886L-6.13075e-05 361.78L-5.9653e-05 342.855L144.191 161.676L-5.78948e-05 322.744L-5.63451e-05 305.017Z" fill="#9A968F"/>
</svg>
