<svg width="16" height="20" viewBox="0 0 16 20" fill="none" xmlns="http://www.w3.org/2000/svg">
<path d="M8 13.6523C7.74219 13.6523 7.52734 13.5664 7.35547 13.3945C7.18359 13.2227 7.09766 13.0078 7.09766 12.75C7.09766 12.2344 7.48438 11.8477 8 11.8477C8.25781 11.8477 8.47266 11.9336 8.64453 12.1055C8.81641 12.2773 8.90234 12.4922 8.90234 12.75C8.90234 13.0078 8.81641 13.2227 8.64453 13.3945C8.47266 13.5664 8.25781 13.6523 8 13.6523ZM7.18359 10.3008C7.18359 9.91406 7.3125 9.52734 7.48438 9.26953C7.65625 8.92578 7.95703 8.625 8.38672 8.23828C8.64453 7.98047 8.81641 7.80859 8.94531 7.63672C9.07422 7.42188 9.11719 7.25 9.11719 7.03516C9.11719 6.77734 9.03125 6.5625 8.81641 6.34766C8.64453 6.17578 8.38672 6.08984 8.04297 6.08984C7.69922 6.08984 7.35547 6.17578 7.18359 6.34766C6.96875 6.51953 6.79688 6.77734 6.79688 7.25H5.25C5.25 6.30469 5.67969 5.66016 6.15234 5.23047C6.66797 4.75781 7.3125 4.5 8 4.5C8.55859 4.5 9.03125 4.62891 9.41797 4.80078C9.84766 5.01562 10.1484 5.31641 10.4062 5.70312C10.6211 6.08984 10.75 6.47656 10.75 6.94922C10.75 7.37891 10.6641 7.76562 10.4492 8.06641C10.2773 8.41016 10.0195 8.75391 9.63281 9.09766C9.375 9.35547 9.16016 9.61328 9.07422 9.78516C8.94531 10 8.90234 10.2578 8.90234 10.5156V10.9023H7.18359V10.3008ZM13.5 8.36719C13.5 5.01562 11.0508 2.65234 8 2.65234C4.94922 2.65234 2.5 5.01562 2.5 8.36719C2.5 10.5156 4.30469 13.3516 8 16.7461C11.6953 13.3516 13.5 10.5156 13.5 8.36719ZM8 0.847656C11.8672 0.847656 15.3477 3.76953 15.3477 8.36719C15.3477 11.375 12.8984 14.9844 8 19.1523C3.10156 14.9844 0.652344 11.375 0.652344 8.36719C0.652344 3.76953 4.13281 0.847656 8 0.847656Z" fill="white" fill-opacity="0.5"/>
</svg>
