<svg width="125" height="19" viewBox="0 0 125 19" fill="none" xmlns="http://www.w3.org/2000/svg">
<g clip-path="url(#clip0_1026_17103)">
<path d="M10.2392 18.8169L4.65419 8.81712V18.8169H0V0H4.91982L10.4786 10.0536V0H15.1328V18.8169H10.2392Z" fill="#54514B"/>
<path d="M22.0339 4.43537V7.12352H28.2838V11.4248H22.0339V14.2474H29.4274V18.8172H17.4062V0H29.1614V4.43537H22.0339Z" fill="#54514B"/>
<path d="M46.9266 18.8169H42.565L40.6501 9.46227L38.7082 18.8169H34.3469L30.3843 0H35.358L36.7143 8.89774L38.7082 0H42.5646L44.5592 8.89774L45.9156 0H50.8894L46.9266 18.8169Z" fill="#54514B"/>
<path d="M59.0005 18.8169V0H63.0164C69.9312 0 73.628 4.73151 73.628 9.32784C73.628 14.0589 69.9312 18.8169 63.0164 18.8169H59.0005ZM63.6547 14.2739C66.3941 14.2739 68.7876 12.3386 68.7876 9.32784C68.7876 6.31712 66.3941 4.5698 63.6547 4.5698V14.2739Z" fill="#54514B"/>
<path d="M88.3937 18.8169H83.6066L83.1012 16.4512H78.4736L77.9688 18.8169H73.2876L77.862 0H83.819L88.3937 18.8169ZM79.4577 12.0159H82.1704L80.8406 5.61825L79.4577 12.0159Z" fill="#54514B"/>
<path d="M103.519 18.8169H99.1577L97.2428 9.46227L95.3014 18.8169H90.9397L86.9771 0H91.9503L93.3067 8.89774L95.3014 0H99.1577L101.152 8.89774L102.509 0H107.482L103.519 18.8169Z" fill="#54514B"/>
<path d="M119.317 18.8169L113.732 8.81712V18.8169H109.078V0H113.997L119.556 10.0536V0H124.21V18.8169H119.317Z" fill="#54514B"/>
</g>
<defs>
<clipPath id="clip0_1026_17103">
<rect width="125" height="18.8172" fill="white"/>
</clipPath>
</defs>
</svg>
