<svg width="20" height="20" viewBox="0 0 20 20" fill="none" xmlns="http://www.w3.org/2000/svg">
<path d="M6.40234 15.5C5.41406 15.5 4.59766 16.3164 4.59766 17.3477C4.59766 18.3359 5.41406 19.1523 6.40234 19.1523C7.43359 19.1523 8.25 18.3359 8.25 17.3477C8.25 16.3164 7.43359 15.5 6.40234 15.5ZM15.5977 15.5C14.5664 15.5 13.75 16.3164 13.75 17.3477C13.75 18.3359 14.5664 19.1523 15.5977 19.1523C16.5859 19.1523 17.4023 18.3359 17.4023 17.3477C17.4023 16.3164 16.5859 15.5 15.5977 15.5ZM14.2656 10.9023C14.9531 10.9023 15.5547 10.5586 15.8555 9.95703L19.1211 4.02734C19.4648 3.42578 19.0352 2.65234 18.3477 2.65234H4.76953L3.91016 0.847656H0.902344V2.65234H2.75L6.05859 9.61328L4.8125 11.8477C4.125 13.0938 5.02734 14.5977 6.40234 14.5977H17.4023V12.75H6.40234L7.43359 10.9023H14.2656ZM5.62891 4.5H16.8008L14.2656 9.09766H7.82031L5.62891 4.5Z" fill="white" fill-opacity="0.5"/>
</svg>
