<svg width="149" height="26" viewBox="0 0 149 26" fill="none" xmlns="http://www.w3.org/2000/svg">
<path d="M0 2.87035V0H9.20409C10.1317 0 10.9014 0.368372 11.5132 1.10511C11.972 1.648 12.2219 2.33884 12.2173 3.05175V4.99831C12.2173 5.93311 11.857 6.70842 11.1364 7.32422C10.6019 7.79559 9.91455 8.05368 9.20409 8.04983H3.01334V12.4543H0V5.17964H9.20409V2.87035H0Z" fill="#E0DFD3"/>
<path d="M22.4374 7.65397H16.5251C15.586 7.65397 14.8163 7.2856 14.2159 6.54886C13.7589 6.01141 13.509 5.32642 13.5117 4.61885V3.0518C13.5117 2.11716 13.872 1.34185 14.5927 0.725886C15.1272 0.254405 15.8146 -0.0037745 16.5251 4.17088e-05H25.4507V2.87039H16.5251V4.78386H22.4374C23.3763 4.78386 24.146 5.15223 24.7465 5.88897C25.2034 6.42643 25.4534 7.1114 25.4507 7.81898V9.41897C25.4507 10.3651 25.085 11.1404 24.3535 11.7449C23.82 12.2052 23.1399 12.457 22.4374 12.4543H13.5117V9.58398H22.4374V7.65397Z" fill="#E0DFD3"/>
<path d="M39.2568 0L34.3108 7.22509V12.4543H31.2976V7.22509L26.3516 0H30.0201L32.8042 4.05797L35.5883 0H39.2568Z" fill="#E0DFD3"/>
<path d="M48.345 7.86847H51.3584V9.40266C51.3584 10.3485 50.9926 11.1238 50.2612 11.7285C49.7276 12.1887 49.0475 12.4404 48.345 12.4378H42.1052C41.1661 12.4378 40.3964 12.0694 39.796 11.3327C39.339 10.7953 39.0891 10.1103 39.0918 9.40266V3.0518C39.0918 2.11716 39.4521 1.34185 40.1727 0.725885C40.7073 0.254449 41.3946 -0.00372427 42.1052 4.06029e-05H48.345C49.2727 4.06029e-05 50.0424 0.368412 50.6543 1.10515C51.113 1.64806 51.3629 2.33889 51.3584 3.0518V4.56936H48.345V2.87039H42.1052V9.56759H48.345V7.86847Z" fill="#E0DFD3"/>
<path d="M52.6523 0H55.6656V12.4543H52.6523V0ZM61.8564 4.78382V0H64.8861V12.4543H61.8564V7.65393H57.1561V4.78382H61.8564Z" fill="#E0DFD3"/>
<path d="M77.7748 12.4379H69.1931C68.254 12.4379 67.4842 12.0695 66.8838 11.3327C66.4269 10.7953 66.177 10.1103 66.1797 9.40274V3.0518C66.1797 2.11716 66.54 1.34185 67.2606 0.725885C67.7952 0.254437 68.4825 -0.00373863 69.1931 4.09173e-05H77.611V2.87039H69.1931V4.78386H77.4473V7.65397H69.1931V9.56759H77.7748V12.4379Z" fill="#E0DFD3"/>
<path d="M79.232 2.87035V0H88.2724C89.2 0 89.9697 0.368372 90.5816 1.10511C91.0403 1.64802 91.2902 2.33885 91.2857 3.05175V9.40262C91.2857 10.3485 90.92 11.1238 90.1885 11.7284C89.6549 12.1886 88.9749 12.4403 88.2724 12.4377H82.0817V12.4543H79.0684V4.56932H82.0817V9.56755H88.2724V2.87035H79.232Z" fill="#E0DFD3"/>
<path d="M104.175 12.4379H95.5934C94.6543 12.4379 93.8846 12.0695 93.2842 11.3327C92.8273 10.7953 92.5773 10.1103 92.5801 9.40274V3.0518C92.5801 2.11716 92.9404 1.34185 93.661 0.725885C94.1956 0.254437 94.8829 -0.00373863 95.5934 4.09173e-05H104.011V2.87039H95.5934V4.78386H103.848V7.65397H95.5934V9.56759H104.175V12.4379Z" fill="#E0DFD3"/>
<path d="M105.469 0H108.482V9.58394H116.9V12.4543H108.482C107.543 12.4543 106.773 12.0858 106.173 11.3489C105.716 10.8116 105.466 10.1265 105.469 9.41893V0Z" fill="#E0DFD3"/>
<path d="M118.193 0H121.207V12.4543H118.193V0Z" fill="#E0DFD3"/>
<path d="M131.753 7.86847H134.767V9.40266C134.767 10.3485 134.401 11.1238 133.669 11.7285C133.136 12.1887 132.456 12.4404 131.753 12.4378H125.513C124.574 12.4378 123.805 12.0694 123.204 11.3327C122.747 10.7952 122.497 10.1102 122.5 9.40266V3.0518C122.5 2.11716 122.86 1.34185 123.581 0.725885C124.116 0.254437 124.803 -0.00373863 125.513 4.09173e-05H131.753C132.681 4.09173e-05 133.451 0.368412 134.062 1.10516C134.521 1.64804 134.771 2.33887 134.767 3.0518V4.56936H131.753V2.87039H125.513V9.56759H131.753V7.86847Z" fill="#E0DFD3"/>
<path d="M144.986 7.65397H139.074C138.135 7.65397 137.365 7.2856 136.765 6.54886C136.308 6.01144 136.058 5.32644 136.061 4.61884V3.0518C136.061 2.11716 136.421 1.34185 137.141 0.725886C137.676 0.254418 138.363 -0.00376015 139.074 4.13913e-05H148V2.87039H139.074V4.78386H144.986C145.925 4.78386 146.695 5.15223 147.295 5.88897C147.752 6.42643 148.002 7.1114 148 7.81898V9.41897C148 10.3651 147.634 11.1404 146.902 11.7449C146.369 12.2052 145.689 12.457 144.986 12.4543H136.061V9.58398H144.986V7.65397Z" fill="#E0DFD3"/>
<path d="M0 26.0001L2.17463 20.3169H3.64679L2.28681 23.885H3.54232L3.29571 23.245L4.02798 21.318L5.82158 26.0001H4.34195L4.03537 25.2021H1.77843L1.47184 26.0001H0Z" fill="#E0DFD3"/>
<path d="M19.287 22.3267V26.0001H17.9121V20.3169H19.5861L22.112 23.9903V20.3169H23.4946V25.9926L23.5024 26.0005H21.8206L19.287 22.3267Z" fill="#E0DFD3"/>
<path d="M35.7031 24.6079V21.7099C35.7055 21.3426 35.8509 20.9909 36.1081 20.7305C36.3653 20.47 36.7136 20.3217 37.0783 20.3173H39.9256C40.1279 20.3142 40.3281 20.3581 40.5108 20.4456C40.6935 20.5331 40.8537 20.6618 40.979 20.8217C41.1884 21.0694 41.3025 21.3846 41.3005 21.7099V24.6079C41.3047 24.8118 41.2616 25.0138 41.1747 25.198C41.0878 25.3822 40.9595 25.5434 40.7999 25.6689C40.5565 25.879 40.2462 25.9939 39.9256 25.9927H37.0783C36.8759 25.9969 36.6752 25.9535 36.4923 25.8659C36.3095 25.7784 36.1494 25.649 36.0249 25.4882C35.8162 25.2432 35.702 24.9307 35.7031 24.6079ZM37.0783 21.6272V24.6831H39.9256V21.6268L37.0783 21.6272Z" fill="#E0DFD3"/>
<path d="M54.8788 22.3267V26.0001H53.5039V20.3169H55.1783L57.7042 23.9903V20.3169H59.0868V25.9926L59.0947 26.0005H57.4133L54.8788 22.3267Z" fill="#E0DFD3"/>
<path d="M77.0372 20.3169L74.7803 23.6139V26.0001H73.4054V23.6139L71.1484 20.3169H72.8224L74.0928 22.1686L75.3632 20.3169H77.0372Z" fill="#E0DFD3"/>
<path d="M93.9889 26.0001V22.3341L92.726 24.1558H91.0515L89.7812 22.3267V26.0001H88.4062V20.3169H90.08L91.8886 22.9365L93.6967 20.3169H95.3706L95.3631 20.3244V26.0001H93.9889Z" fill="#E0DFD3"/>
<path d="M106.887 24.6079V21.7099C106.889 21.3426 107.035 20.9909 107.292 20.7305C107.549 20.4701 107.897 20.3217 108.262 20.3173H111.11C111.312 20.3142 111.512 20.3581 111.695 20.4456C111.877 20.5331 112.038 20.6618 112.163 20.8217C112.372 21.0694 112.486 21.3846 112.484 21.7099V24.6079C112.488 24.8118 112.445 25.0138 112.358 25.198C112.271 25.3822 112.143 25.5434 111.984 25.6689C111.74 25.879 111.43 25.9939 111.109 25.9927H108.262C108.059 25.9969 107.859 25.9535 107.676 25.8659C107.493 25.7784 107.333 25.649 107.208 25.4882C107 25.2432 106.886 24.9307 106.887 24.6079ZM108.262 21.6272V24.6831H111.11V21.6268L108.262 21.6272Z" fill="#E0DFD3"/>
<path d="M130.283 20.3169V24.6079C130.286 24.8116 130.242 25.0133 130.155 25.1973C130.068 25.3813 129.941 25.5427 129.782 25.6689C129.536 25.8799 129.223 25.9948 128.9 25.9927H126.053C125.85 25.9969 125.65 25.9535 125.467 25.8659C125.284 25.7783 125.124 25.649 124.999 25.4882C124.791 25.243 124.676 24.9305 124.678 24.6076V20.3169H126.053V24.6827H128.9V20.3169H130.283Z" fill="#E0DFD3"/>
<path d="M146.626 23.8094H143.928C143.725 23.8137 143.525 23.7703 143.342 23.6828C143.159 23.5952 142.999 23.4659 142.874 23.3052C142.666 23.0599 142.552 22.7473 142.553 22.4244V21.7098C142.555 21.3425 142.701 20.9909 142.958 20.7305C143.215 20.4701 143.563 20.3217 143.928 20.3171H148.001V21.6266H143.928V22.4997H146.626C146.828 22.4956 147.029 22.539 147.212 22.6265C147.395 22.714 147.555 22.8432 147.679 23.0039C147.888 23.2492 148.002 23.5619 148.001 23.8848V24.6149C148.005 24.8188 147.962 25.0208 147.875 25.205C147.788 25.3892 147.66 25.5504 147.5 25.6759C147.256 25.8859 146.946 26.0008 146.626 25.9996H142.553V24.6901H146.626V23.8094Z" fill="#E0DFD3"/>
</svg>
