<svg width="148" height="43" viewBox="0 0 148 43" fill="none" xmlns="http://www.w3.org/2000/svg">
<path d="M54.8129 15.9064C64.6268 15.9666 72.514 23.8538 72.5742 33.6678V43H15.3766C7.00767 43 0.324577 36.3169 0.324577 27.948H12.3662C12.3662 29.6338 13.6908 30.9584 15.3766 30.9584H59.8101C58.8468 29.1522 56.9201 28.0082 54.8129 27.948H18.0257C8.21183 27.948 0.324577 20.0607 0.324577 10.2468V0.854373H57.5222C65.8309 0.91458 72.514 7.59768 72.5742 15.9064H60.5326C60.4724 14.2808 59.1478 12.9562 57.5222 12.896H13.0285C13.9918 14.7624 15.9185 15.9064 18.0257 15.9064H54.8129Z" fill="#E0DFD3"/>
<path d="M135.44 0.854373H147.481V8.07934C147.481 12.7756 145.615 17.2912 142.243 20.6026L119.846 43H102.807L80.4097 20.6026C77.0381 17.2912 75.1716 12.7756 75.2318 8.07934V0.854373H87.2734V8.07934C87.2132 9.58454 87.8153 11.0295 88.8991 12.1133L107.804 30.9584H114.849L133.754 12.1133C134.838 11.0295 135.44 9.58454 135.44 8.07934V0.854373Z" fill="#9AE079"/>
</svg>
