<svg width="327" height="134" viewBox="0 0 327 134" fill="none" xmlns="http://www.w3.org/2000/svg">
<path d="M80.726 0.28676C95.0963 0.37492 106.646 11.9241 106.734 26.2945V48.7757H18.5719V62H0.939559V0.28676H80.726ZM89.1013 31.1434V26.2945C89.0132 21.7101 85.3104 18.0073 80.726 17.9191H18.5719V31.1434H89.1013ZM190.412 0.28676C204.782 0.37492 216.331 11.9241 216.419 26.2945V62H198.787V53.1838H128.258V62H110.625V26.2945C110.625 11.9241 122.174 0.37492 136.545 0.28676H190.412ZM198.787 35.5515V26.2945C198.699 21.7101 194.996 18.0073 190.412 17.9191H136.545C131.96 18.0073 128.258 21.7101 128.258 26.2945V35.5515H198.787ZM304.065 44.3676C306.445 44.3676 308.384 42.4281 308.473 39.9596H326.105C326.017 52.214 316.231 62 304.065 62H246.23C231.86 62 220.311 50.4508 220.311 36.0804V26.2945C220.311 11.9241 231.86 0.37492 246.23 0.28676H304.065C316.231 0.37492 326.017 10.1609 326.105 22.3272H308.473C308.384 19.9468 306.445 18.0073 304.065 17.9191H246.23C241.646 18.0073 237.943 21.7101 237.943 26.2945V36.0804C237.943 40.6649 241.646 44.3676 246.23 44.3676H304.065ZM106.734 76.6948C106.734 86.8335 102.326 96.5312 94.7437 103.143C102.326 109.844 106.734 119.541 106.734 129.592V134H89.1013V129.592C89.0132 119.894 81.1668 112.048 71.469 111.96H18.5719V134H0.939559V72.2868H18.5719V94.3272H71.469C81.1668 94.3272 89.0132 86.4808 89.1013 76.6948V72.2868H106.734V76.6948ZM190.498 94.3272C204.868 94.4154 216.417 105.965 216.505 120.335V134H132.752C120.497 134 110.711 124.214 110.711 111.96H128.344C128.344 114.428 130.283 116.368 132.752 116.368H197.815C196.405 113.723 193.583 112.048 190.498 111.96H136.631C122.26 111.96 110.711 100.41 110.711 86.04V72.2868H194.465C206.631 72.3749 216.417 82.1609 216.505 94.3272H198.873C198.785 91.9468 196.845 90.0073 194.465 89.9191H129.313C130.724 92.6521 133.545 94.3272 136.631 94.3272H190.498Z" fill="#E0DFD3"/>
<path d="M295.334 72.2868L326.103 103.143L295.334 134H270.385L292.425 111.96H220.397V94.3272H292.425L270.385 72.2868H295.334Z" fill="#9AE079"/>
</svg>
