<svg width="16" height="22" viewBox="0 0 16 22" fill="none" xmlns="http://www.w3.org/2000/svg">
  <path
    d="M8 5.5C4.94922 5.5 2.5 7.94922 2.5 11C2.5 11.9453 2.71484 12.8047 3.14453 13.5781L1.8125 14.9102C1.08203 13.793 0.652344 12.418 0.652344 11C0.652344 6.96094 3.96094 3.65234 8 3.65234V0.902344L11.6523 4.59766L8 8.25V5.5ZM14.1875 7.08984C14.918 8.20703 15.3477 9.58203 15.3477 11C15.3477 15.0391 12.0391 18.3477 8 18.3477V21.0977L4.34766 17.4023L8 13.75V16.5C11.0508 16.5 13.5 14.0508 13.5 11C13.5 10.0547 13.2422 9.19531 12.8555 8.42188L14.1875 7.08984Z"
    fill="#E0DFD3" />
</svg>