<svg width="327" height="134" viewBox="0 0 327 134" fill="none" xmlns="http://www.w3.org/2000/svg">
  <path
    d="M106.734 24.5312C106.734 30.4381 104.53 36.1686 100.651 40.5767C104.53 45.1611 106.734 51.0679 106.734 57.1511V62H89.1013V57.1511C89.0132 52.5667 85.3104 48.8639 80.726 48.7757H18.5719V62H0.939559V0.28676H82.4892C95.8016 0.37492 106.646 11.2188 106.734 24.5312ZM18.5719 31.1434H82.4892C86.1038 31.1434 89.1013 28.234 89.1013 24.5312C89.1013 20.9166 86.1038 17.9191 82.4892 17.9191H18.5719V31.1434ZM326.105 24.5312C326.105 30.4381 323.901 36.1686 320.022 40.5767C323.901 45.1611 326.105 51.0679 326.105 57.1511V62H308.473V57.1511C308.384 52.5667 304.682 48.8639 300.097 48.7757H237.943V62H220.311V0.28676H301.86C315.173 0.37492 326.017 11.2188 326.105 24.5312ZM237.943 31.1434H301.86C305.475 31.1434 308.473 28.234 308.473 24.5312C308.473 20.9166 305.475 17.9191 301.86 17.9191H237.943V31.1434Z"
    fill="#7ACEE0" />
  <path
    d="M136.545 17.9191C133.459 18.0073 130.638 19.6824 129.227 22.3272H215.89V39.9596H128.258V44.3676H216.419V62H110.625V26.2945C110.625 11.9241 122.174 0.37492 136.545 0.28676H216.419V17.9191H136.545ZM26.8591 72.2868H106.734V108.08C106.646 122.451 95.0963 134 80.726 134H0.939559V98.2945C0.939559 83.9241 12.4888 72.3749 26.8591 72.2868ZM89.1013 108.08V89.9191H26.8591C22.2747 90.0073 18.5719 93.7101 18.5719 98.2945V116.368H80.726C85.3104 116.368 89.0132 112.665 89.1013 108.08ZM198.787 111.96H216.419V134H110.625V98.2945C110.625 85.511 119.97 74.579 132.666 72.6394C133.9 72.4631 135.222 72.3749 136.545 72.2868H137.074V89.9191H136.545C131.96 90.0073 128.258 93.7101 128.258 98.2945V116.368H198.787V111.96ZM308.473 111.96H326.105V134H220.311V98.2945C220.311 85.511 229.656 74.579 242.351 72.6394C243.586 72.4631 244.908 72.3749 246.23 72.2868H246.759V89.9191H246.23C241.646 90.0073 237.943 93.7101 237.943 98.2945V116.368H308.473V111.96Z"
    fill="#E0DFD3" />
</svg>