<svg width="327" height="134" viewBox="0 0 327 134" fill="none" xmlns="http://www.w3.org/2000/svg">
<path d="M80.726 22.3272C95.0963 22.4154 106.646 33.9646 106.734 48.3349V62H22.98C10.7255 62 0.939559 52.214 0.939559 39.9596H18.5719C18.5719 42.4281 20.5115 44.3676 22.98 44.3676H88.0434C86.6328 41.7228 83.8116 40.0477 80.726 39.9596H26.8591C12.4888 39.9596 0.939559 28.4104 0.939559 14.04V0.28676H84.6932C96.8596 0.37492 106.646 10.1609 106.734 22.3272H89.1013C89.0132 19.9468 87.0736 18.0073 84.6932 17.9191H19.5417C20.9523 20.6521 23.7735 22.3272 26.8591 22.3272H80.726ZM216.419 17.9191H172.338V62H154.706V17.9191H110.625V0.28676H216.419V17.9191ZM300.097 0.28676C314.468 0.37492 326.017 11.9241 326.105 26.2945V62H308.473V53.1838H237.943V62H220.311V26.2945C220.311 11.9241 231.86 0.37492 246.23 0.28676H300.097ZM308.473 35.5515V26.2945C308.384 21.7101 304.682 18.0073 300.097 17.9191H246.23C241.646 18.0073 237.943 21.7101 237.943 26.2945V35.5515H308.473ZM106.734 96.5312C106.734 102.438 104.53 108.169 100.651 112.577C104.53 117.161 106.734 123.068 106.734 129.151V134H89.1013V129.151C89.0132 124.567 85.3104 120.864 80.726 120.776H18.5719V134H0.939559V72.2868H82.4892C95.8016 72.3749 106.646 83.2188 106.734 96.5312ZM18.5719 103.143H82.4892C86.1038 103.143 89.1013 100.234 89.1013 96.5312C89.1013 92.9166 86.1038 89.9191 82.4892 89.9191H18.5719V103.143ZM216.419 89.9191H172.338V134H154.706V89.9191H110.625V72.2868H216.419V89.9191Z" fill="#E0DFD3"/>
<path d="M295.248 72.2868L326.017 103.143L295.248 134H270.299L292.339 111.96H220.311V94.3272H292.339L270.299 72.2868H295.248Z" fill="#F4C952"/>
</svg>
