<svg width="765" height="62" viewBox="0 0 765 62" fill="none" xmlns="http://www.w3.org/2000/svg">
<path d="M80.726 22.3272C95.0963 22.4154 106.646 33.9646 106.734 48.3349V62H22.98C10.7255 62 0.939559 52.214 0.939559 39.9596H18.5719C18.5719 42.4281 20.5115 44.3676 22.98 44.3676H88.0434C86.6328 41.7228 83.8116 40.0477 80.726 39.9596H26.8591C12.4888 39.9596 0.939559 28.4104 0.939559 14.04V0.28676H84.6932C96.8596 0.37492 106.646 10.1609 106.734 22.3272H89.1013C89.0132 19.9468 87.0736 18.0073 84.6932 17.9191H19.5417C20.9523 20.6521 23.7735 22.3272 26.8591 22.3272H80.726Z" fill="#9A968F"/>
<path d="M198.787 0.28676H216.419V35.816C216.331 50.2745 204.606 62 190.147 62H136.809C122.351 62 110.625 50.2745 110.625 35.816V0.28676H128.258V35.816C128.258 40.5767 132.049 44.3676 136.809 44.3676H190.147C194.908 44.3676 198.699 40.5767 198.787 35.816V0.28676ZM300.183 0.28676C314.554 0.37492 326.103 11.9241 326.191 26.2945V48.7757H238.029V62H220.397V0.28676H300.183ZM308.559 31.1434V26.2945C308.471 21.7101 304.768 18.0073 300.183 17.9191H238.029V31.1434H308.559ZM409.869 0.28676C424.239 0.37492 435.789 11.9241 435.877 26.2945V48.7757H347.715V62H330.083V0.28676H409.869ZM418.244 31.1434V26.2945C418.156 21.7101 414.453 18.0073 409.869 17.9191H347.715V31.1434H418.244ZM465.688 0.28676H545.562V36.0804C545.474 50.4508 533.925 62 519.555 62H439.768V26.2945C439.768 11.9241 451.317 0.37492 465.688 0.28676ZM527.93 36.0804V17.9191H465.688C461.103 18.0073 457.401 21.7101 457.401 26.2945V44.3676H519.555C524.139 44.3676 527.842 40.6649 527.93 36.0804ZM655.248 24.5312C655.248 30.4381 653.044 36.1686 649.165 40.5767C653.044 45.1611 655.248 51.0679 655.248 57.1511V62H637.616V57.1511C637.527 52.5667 633.825 48.8639 629.24 48.7757H567.086V62H549.454V0.28676H631.003C644.316 0.37492 655.16 11.2188 655.248 24.5312ZM567.086 31.1434H631.003C634.618 31.1434 637.616 28.234 637.616 24.5312C637.616 20.9166 634.618 17.9191 631.003 17.9191H567.086V31.1434ZM764.934 17.9191H720.853V62H703.22V17.9191H659.14V0.28676H764.934V17.9191Z" fill="#E0DFD3"/>
</svg>
