<svg width="278" height="87" viewBox="0 0 278 87" fill="none" xmlns="http://www.w3.org/2000/svg">
<path d="M51.463 14.9855C60.5944 15.0415 67.9332 22.3803 67.9892 31.5118V40.1951H14.769C6.98208 40.1951 0.763718 33.9767 0.763718 26.1897H11.968C11.968 27.7583 13.2004 28.9908 14.769 28.9908H56.1127C55.2164 27.3102 53.4237 26.2458 51.463 26.1897H17.234C8.10251 26.1897 0.763718 18.851 0.763718 9.71949V0.980173H53.9839C61.7149 1.03619 67.9332 7.25456 67.9892 14.9855H56.785C56.729 13.4729 55.4965 12.2405 53.9839 12.1844H12.5842C13.4805 13.9211 15.2732 14.9855 17.234 14.9855H51.463ZM257.477 46.9802L277.028 66.5876L257.477 86.1951H241.623L255.628 72.1897H209.859V60.9855H255.628L241.623 46.9802H257.477Z" fill="#9A968F"/>
<path d="M126.483 0.980173H137.688V23.5567C137.632 32.7442 130.181 40.1951 120.993 40.1951H87.1004C77.9129 40.1951 70.4621 32.7442 70.4621 23.5567V0.980173H81.6663V23.5567C81.6663 26.5819 84.0752 28.9908 87.1004 28.9908H120.993C124.018 28.9908 126.427 26.5819 126.483 23.5567V0.980173ZM190.914 0.980173C200.046 1.03619 207.385 8.37498 207.441 17.5065V31.7919H151.419V40.1951H140.215V0.980173H190.914ZM196.236 20.5876V17.5065C196.18 14.5933 193.827 12.2405 190.914 12.1844H151.419V20.5876H196.236ZM260.613 0.980173C269.744 1.03619 277.083 8.37498 277.139 17.5065V31.7919H221.118V40.1951H209.913V0.980173H260.613ZM265.935 20.5876V17.5065C265.879 14.5933 263.526 12.2405 260.613 12.1844H221.118V20.5876H265.935ZM17.234 46.9802H67.9892V69.7248C67.9332 78.8563 60.5944 86.1951 51.463 86.1951H0.763718V63.5065C0.763718 54.375 8.10251 47.0362 17.234 46.9802ZM56.785 69.7248V58.1844H17.234C14.3209 58.2405 11.968 60.5933 11.968 63.5065V74.9908H51.463C54.3761 74.9908 56.729 72.6379 56.785 69.7248ZM137.688 62.386C137.688 66.1395 136.287 69.7808 133.822 72.5819C136.287 75.495 137.688 79.2484 137.688 83.1139V86.1951H126.483V83.1139C126.427 80.2008 124.074 77.8479 121.161 77.7919H81.6663V86.1951H70.4621V46.9802H122.282C130.741 47.0362 137.632 53.9268 137.688 62.386ZM81.6663 66.5876H122.282C124.579 66.5876 126.483 64.7389 126.483 62.386C126.483 60.0892 124.579 58.1844 122.282 58.1844H81.6663V66.5876ZM207.386 58.1844H179.375V86.1951H168.171V58.1844H140.16V46.9802H207.386V58.1844Z" fill="#E0DFD3"/>
</svg>
