<svg width="17" height="14" viewBox="0 0 17 14" fill="none" xmlns="http://www.w3.org/2000/svg">
<g clip-path="url(#clip0_397_18328)">
<path d="M5.2853 14.0017C6.59595 14.012 7.89554 13.7587 9.10838 13.2565C10.3212 12.7543 11.4231 12.0133 12.3498 11.0766C13.2765 10.1399 14.0096 9.02627 14.5063 7.8005C15.003 6.57473 15.2535 5.26134 15.2431 3.9368V3.47896C15.9259 2.97275 16.5198 2.35426 17 1.64928C16.3682 1.94308 15.6943 2.13386 15.0033 2.21451C15.7372 1.77098 16.2862 1.07266 16.5478 0.249972C15.861 0.653281 15.115 0.94326 14.3378 1.10897C13.6998 0.428274 12.8219 0.0294826 11.8946 -0.000755758C10.9674 -0.0309941 10.0658 0.309764 9.3857 0.947481C8.93821 1.36782 8.60882 1.9004 8.43101 2.49109C8.2532 3.08177 8.23331 3.7095 8.37335 4.31047C6.98437 4.24144 5.62531 3.87782 4.3845 3.24322C3.14369 2.60862 2.0489 1.71726 1.1713 0.627073C0.72232 1.40389 0.585231 2.32513 0.788274 3.20104C0.991317 4.07694 1.51903 4.8408 2.2627 5.33526C1.70533 5.31393 1.15969 5.1672 0.66555 4.90576V4.95987C0.665555 5.7751 0.943585 6.56542 1.45281 7.1977C1.96203 7.82997 2.67132 8.26556 3.4612 8.4311C2.94848 8.56974 2.41116 8.58795 1.8904 8.48436C2.11454 9.18727 2.551 9.80153 3.13844 10.2408C3.72588 10.6801 4.43476 10.9223 5.16545 10.9334C3.93035 11.9197 2.39949 12.4511 0.82535 12.4401C0.5593 12.4401 0.26605 12.4126 0 12.3859C1.56747 13.4455 3.41224 14.0082 5.29805 14.0017" fill="#54514B"/>
</g>
<defs>
<clipPath id="clip0_397_18328">
<rect width="17" height="14" fill="#54514B"/>
</clipPath>
</defs>
</svg>
